<svg xmlns="http://www.w3.org/2000/svg" width="512" height="512" viewBox="0 0 512 512"><defs><linearGradient id="g" x1="0" y1="0" x2="1" y2="1"><stop offset="0" stop-color="#ffb300"/><stop offset="1" stop-color="#ff7a00"/></linearGradient></defs><rect width="512" height="512" rx="112" fill="url(#g)"/><g transform="translate(256,256) scale(0.43,-0.43) translate(-378.5,-370)"><path d="M774 609H676V0H518V156Q486 121 437.5 101.5Q389 82 326 82Q197 82 126.0 158.0Q55 234 55 364Q55 397 59 424H69Q151 424 184.0 459.5Q217 495 217 564V609H-17V740H774ZM518 609H372V535Q372 454 333.5 404.0Q295 354 211 344Q213 285 252.0 249.0Q291 213 360 213Q432 213 475.0 258.0Q518 303 518 373Z" fill="#1a1200"/></g></svg>